<svg width="22" height="18" viewBox="0 0 22 18" xmlns="http://www.w3.org/2000/svg">
    <path d="M22 2.301c-.81.352-1.68.59-2.592.698A4.46 4.46 0 0 0 21.392.547a9.139 9.139 0 0 1-2.866 1.076 4.547 4.547 0 0 0-3.294-1.4c-2.493 0-4.514 1.984-4.514 4.431 0 .348.04.686.117 1.01a12.894 12.894 0 0 1-9.303-4.63A4.35 4.35 0 0 0 .92 3.262a4.41 4.41 0 0 0 2.008 3.689 4.559 4.559 0 0 1-2.044-.555v.056c0 2.147 1.555 3.938 3.62 4.345a4.601 4.601 0 0 1-2.038.076c.574 1.76 2.241 3.042 4.216 3.078a9.163 9.163 0 0 1-5.605 1.897c-.365 0-.724-.021-1.077-.062a12.948 12.948 0 0 0 6.919 1.99c8.302 0 12.842-6.752 12.842-12.608 0-.192-.005-.383-.013-.573A9.082 9.082 0 0 0 22 2.301z" fill="#69ACE0" fill-rule="evenodd"/>
</svg>
