<!--?xml version="1.0" encoding="UTF-8"?-->
<svg width="22px" height="22px" viewBox="0 0 22 22" version="1.1" xmlns="http://www.w3.org/2000/svg" xmlns:xlink="http://www.w3.org/1999/xlink">
    <!-- Generator: Sketch 40.3 (33839) - http://www.bohemiancoding.com/sketch -->
    <title>linkedin-ico</title>
    <desc>Created with Sketch.</desc>
    <defs></defs>
    <g id="Symbols" stroke="none" stroke-width="1" fill="none" fill-rule="evenodd">
        <g id="Footer-1" transform="translate(-1489.000000, -377.000000)">
            <g id="Footer">
                <g id="Group-14" transform="translate(1409.000000, 377.000000)">
                    <g id="linkedin-ico" transform="translate(80.000000, 0.000000)">
                        <g id="Group">
                            <path d="M20.3722429,0 L1.62297208,0 C0.727792083,0 0.000307083333,0.710178333 0.000307083333,1.58625958 L0.000307083333,20.4125167 C0.000307083333,21.2886071 0.727792083,22 1.62297208,22 L20.3722475,22 C21.2692379,22 21.9996975,21.2886071 21.9996975,20.4125167 L21.9996975,1.58625958 C21.9996929,0.710178333 21.2692333,0 20.3722429,0 L20.3722429,0 Z" id="Shape" fill="#007BB5"></path>
                            <path d="M3.25996,8.24761667 L6.52617625,8.24761667 L6.52617625,18.7463237 L3.25996,18.7463237 L3.25996,8.24761667 L3.25996,8.24761667 Z M4.89396875,3.02869875 C5.93775417,3.02869875 6.78516667,3.87643667 6.78516667,4.9208225 C6.78516667,5.96549708 5.93774958,6.81322125 4.89396875,6.81322125 C3.8460125,6.81322125 3.00096042,5.96550167 3.00096042,4.9208225 C3.00096042,3.87643667 3.84600792,3.02869875 4.89396875,3.02869875 L4.89396875,3.02869875 Z" id="Shape" fill="#FFFFFF"></path>
                            <path d="M8.57315708,8.24761667 L11.7009475,8.24761667 L11.7009475,9.68287375 L11.7456808,9.68287375 C12.1807308,8.85750708 13.2454071,7.9871 14.8328904,7.9871 C18.1366808,7.9871 18.7472404,10.1609429 18.7472404,12.9884929 L18.7472404,18.7463192 L15.4845808,18.7463192 L15.4845808,13.6407929 C15.4845808,12.4233358 15.4636808,10.8570596 13.7891142,10.8570596 C12.0912642,10.8570596 11.8322142,12.1840263 11.8322142,13.55365 L11.8322142,18.7463238 L8.57315708,18.7463238 L8.57315708,8.24761667 L8.57315708,8.24761667 Z" id="Shape" fill="#FFFFFF"></path>
                        </g>
                    </g>
                </g>
            </g>
        </g>
    </g>
</svg>