<svg width="22" height="22" viewBox="0 0 22 22" xmlns="http://www.w3.org/2000/svg">
    <g fill="none" fill-rule="evenodd">
        <path d="M20.372 0H1.623C.728 0 0 .71 0 1.586v18.827C0 21.289.728 22 1.623 22h18.75c.896 0 1.627-.711 1.627-1.587V1.586C22 .71 21.27 0 20.372 0z" fill="#007BB5"/>
        <path d="M3.26 8.248h3.266v10.498H3.26V8.248zm1.634-5.22a1.892 1.892 0 1 1-.003 3.786 1.892 1.892 0 0 1 .003-3.785zM8.573 8.248h3.128v1.435h.045c.435-.825 1.5-1.696 3.087-1.696 3.304 0 3.914 2.174 3.914 5.001v5.758h-3.262v-5.105c0-1.218-.021-2.784-1.696-2.784-1.698 0-1.957 1.327-1.957 2.697v5.192H8.573V8.248z" fill="#FFF"/>
    </g>
</svg>
